<?xml version="1.0" encoding="iso-8859-1"?>
<!-- Generator: Adobe Illustrator 21.0.0, SVG Export Plug-In . SVG Version: 6.00 Build 0)  -->
<svg version="1.1" xmlns="http://www.w3.org/2000/svg" xmlns:xlink="http://www.w3.org/1999/xlink" x="0px" y="0px" width="1400px"
	 height="1400px" viewBox="0 0 1400 1400" enable-background="new 0 0 1400 1400" xml:space="preserve">
<g id="Background">
	<linearGradient id="gradient_fill_1_" gradientUnits="userSpaceOnUse" x1="700" y1="0" x2="700" y2="1400">
		<stop  offset="0" style="stop-color:#00B7FF"/>
		<stop  offset="0.1102" style="stop-color:#34C6F4"/>
		<stop  offset="0.239" style="stop-color:#69D5E8"/>
		<stop  offset="0.3696" style="stop-color:#97E2DE"/>
		<stop  offset="0.4992" style="stop-color:#BCECD6"/>
		<stop  offset="0.6276" style="stop-color:#DAF4CF"/>
		<stop  offset="0.7546" style="stop-color:#EEFACB"/>
		<stop  offset="0.8795" style="stop-color:#FBFEC8"/>
		<stop  offset="1" style="stop-color:#FFFFC7"/>
	</linearGradient>
	<rect id="gradient_fill" fill="url(#gradient_fill_1_)" width="1400" height="1400"/>
</g>
<g id="Objects">
	<g id="cloud">
		<path opacity="0.4" fill="#FFFFFF" d="M1259.9,261.8c0,20.2,4.3,39.4,12,56.7c-18.6,5.7-32.8,21.6-36.1,41.2
			c-17.3-7.8-36.5-12.2-56.7-12.2c-70.4,0-128.4,52.9-136.5,121.1c-7.4-3.1-15.5-4.7-24-4.7c-29.7,0-54.6,20.7-61.2,48.4
			c-5.5-2-11.4-3-17.5-3c-12.6,0-24.2,4.5-33.2,12.1c-25.7-40-70.6-66.6-121.7-66.6c-44.8,0-84.8,20.4-111.3,52.3
			c-9.4-6.6-20.9-10.5-33.3-10.5c-16.9,0-32.1,7.2-42.7,18.8c-9.7-13.7-25.3-22.9-43-24.2c0.1-2,0.2-4.1,0.2-6.1
			c0-49.9-40.4-90.3-90.3-90.3c-21.5,0-41.3,7.5-56.8,20.1c-11.9-21.6-34.9-36.2-61.3-36.2c-4.4,0-8.7,0.4-12.8,1.2
			c0.9-6.6,1.5-13.3,1.5-20.2c0-77.4-62.7-140.1-140.1-140.1c-15.1,0-29.6,2.4-43.3,6.8C138.5,154.7,75.6,100.3,0,100.3v215.9v93.1
			v890.3h1400V401.9V261.8V121.7C1322.6,121.7,1259.9,184.4,1259.9,261.8z"/>
		<path opacity="0.5" fill="#FFFFFF" d="M1245.5,558.3c0,1.7,0,3.5,0.1,5.2c-0.1,0-0.2,0-0.3,0c-20.1,0-38.9,6-54.5,16.2
			c-17.7-11-38.5-17.4-60.9-17.4c-63.7,0-115.4,51.7-115.4,115.4c0,7.7,0.8,15.2,2.2,22.5c-14.4,3.2-27.4,9.7-38.3,18.8
			c-21.5-13.8-47.1-21.9-74.6-21.9c-54.9,0-102.2,32.1-124.4,78.5c-6.2-2.2-12.9-3.5-19.8-3.5c-6.8,0-13.2,1.2-19.3,3.3
			c-22.7-50.1-73.2-85-131.8-85c-52,0-97.6,27.5-123,68.6c-7.9-8.6-19.4-14.1-32-14.1c-0.5,0-1.1,0-1.6,0
			c-7.3-36.1-39.2-63.3-77.4-63.3c-12.6,0-24.6,3-35.2,8.3c-14.1-65-71.1-114-139.9-116c3.2-14.3,4.9-29.2,4.9-44.5
			c0-112.8-91.4-204.2-204.2-204.2v293.9v114.5v565.8h1400V712.8V584.7V403.8C1314.7,403.8,1245.5,473,1245.5,558.3z"/>
	</g>
	<linearGradient id="field_1_" gradientUnits="userSpaceOnUse" x1="700" y1="1056.7328" x2="700" y2="1400">
		<stop  offset="0" style="stop-color:#B2D32C"/>
		<stop  offset="1" style="stop-color:#009245"/>
	</linearGradient>
	<rect id="field" y="1056.7" fill="url(#field_1_)" width="1400" height="343.3"/>
	<g id="cricket_player">
		<defs>
			<rect id="SVGID_1_" x="0" width="1400" height="1400"/>
		</defs>
		<clipPath id="SVGID_2_">
			<use xlink:href="#SVGID_1_"  overflow="visible"/>
		</clipPath>
		<g clip-path="url(#SVGID_2_)">
			<linearGradient id="SVGID_3_" gradientUnits="userSpaceOnUse" x1="473.4749" y1="761.6013" x2="593.2891" y2="761.6013">
				<stop  offset="0" style="stop-color:#FDE0D2"/>
				<stop  offset="0.9995" style="stop-color:#F1594B"/>
			</linearGradient>
			<polygon fill="url(#SVGID_3_)" points="536.5,703.1 473.5,759.6 509.4,820.1 593.3,778.8 			"/>
			<linearGradient id="SVGID_4_" gradientUnits="userSpaceOnUse" x1="514.7793" y1="1181.0006" x2="1154.6974" y2="1181.0006">
				<stop  offset="0" style="stop-color:#2A00E6"/>
				<stop  offset="1" style="stop-color:#FF00AA"/>
			</linearGradient>
			<path fill="url(#SVGID_4_)" d="M514.8,631.9c0,0,9.1,69.4,11.5,78.2c2.4,8.8,76.8,166.9,84.4,177.7
				c7.6,10.8,97.7,118.3,97.7,118.3s-14.3,24.4-16.4,27.3c-2.1,2.9-3.8,49.6-5.5,56.8c-1.7,7.1-75.3,95.4-79.7,110.6
				s-57.4,157.7-57.4,157.7l68.7,471.7c0,0,138.7,28.4,142.5,28.4c3.8,0,34.7-41,32.2-56.1c-2.5-15.1-25.9-51.1-29-55.5
				c-3.2-4.4-30.4-19.5-30.4-19.5s-14.7-50.4-14.7-53.9c0-3.5,27.4-44.5,26.5-53.3c-0.9-8.8-28.4-53.9-30.3-55.5
				s-18.6-52.7-18.9-56.8s11-16.4,8.8-24c-2.2-7.6-20.5-32.8-21.1-35.9c-0.6-3.2,153.9-106.6,163.3-114.1
				C856.6,1326.1,972,1188,972,1188l-41.6,596.5l127.7-0.6c0,0,27-214.6,29.9-224.1c2.8-9.5,11.2-120.4,10.8-133.4
				c-0.4-13,36.6-165.8,36.6-168.4c0-2.5,24.9-127.4,18.3-220.1c-1.3-18.9-13.9-22.1-15.8-29.6c-1.9-7.6-5.7-46-18.9-58.6
				c-13.2-12.6-34.1-33.4-36.6-37.2c-2.5-3.8,2.5-28.4,1.3-31.5s-32.8-8.2-34.7-13.2c-1.9-5-13.2-44.8-18.9-47.9
				s-29.6-9.5-44.8-42.9c-15.1-33.4-35-88.3-78.5-119.5c-43.5-31.2-89-61.3-99.5-69.3s-24-25.2-28.2-29.8c-4.2-4.6-34.1-8.4-50-19.8
				c-16-11.4-86.6-35.3-115.6-34.9C584.4,504.1,514.8,631.9,514.8,631.9z"/>
			<path opacity="0.2" d="M1078.5,1038l35.9,28.4l-7.6-63.7l-46.7-9.5l17-33.4l-43.1,2.9l7.1-28.6l-33.6-1.9l41.2-22.9l-55.9-5
				l10.9-11.2h64.7l-50.4-22.5l-114.8-18.5l38.7-5.5l82.4,13l-40.8-20.2l25.2-2.9l23.5,5.5l-25.6-19.8l-61.4-15L816.2,689.8
				l-15.1-32.7l-25.2,27.1l-13.2-19.8l-71.6-13l3.8-41.9l-46.3,22.1l42.6-35.9l3.8-34.6l-12.9,4.4l5.7-29.3l-32.5,49.8l-35,31.2
				l12.3-32.8l-14.5-64.6l-27.1-1.3c-32.5,33.7-76,113.5-76,113.5s9.1,69.4,11.5,78.2c2.4,8.8,76.8,166.9,84.4,177.7
				c7.6,10.8,97.7,118.3,97.7,118.3s-14.3,24.4-16.4,27.3c-2.1,2.9-3.8,49.6-5.5,56.8c-1.7,7.1-75.3,95.4-79.7,110.6
				c-4.4,15.1-57.4,157.7-57.4,157.7l68.7,471.7c0,0,138.7,28.4,142.5,28.4c2.7,0,19.8-21.6,27.9-39.2l-42.4-27v-29l-46-46
				l22.2-29.1c-2.1-7.6-3.6-13.7-3.6-14.8c0-2.6,15.2-25.9,22.5-41.3l-15.9,1.9l-25.2,35.9l0.9-35.3l12.8-72h0l-16-4.9l-29.3,72.5
				l-28-84.3l17.2-61.7l25.9-36.3c-0.6-3.2,153.9-106.6,163.3-114.1S972,1188,972,1188l-9.4,114.7l97.7-121.7l-56.1-57.9l-3.2-24.6
				l27.7-52.3L1078.5,1038z"/>
			<linearGradient id="SVGID_5_" gradientUnits="userSpaceOnUse" x1="368.6902" y1="932.2279" x2="689.0353" y2="932.2279">
				<stop  offset="0" style="stop-color:#FDE0D2"/>
				<stop  offset="0.9995" style="stop-color:#F1594B"/>
			</linearGradient>
			<path fill="url(#SVGID_5_)" d="M565.4,839.5c0,0-43.7,71-50.7,71.9c-6.9,0.8-44.8,17.2-54,18.5c-9.2,1.3-76.1,0-76.1,0l-16,54.2
				c0,0,60.5,32,90,37.4c29.4,5.5,102.6,3.4,119.4,0c16.8-3.4,111-152.2,111-152.2L565.4,839.5z"/>
			<linearGradient id="SVGID_6_" gradientUnits="userSpaceOnUse" x1="276.9378" y1="789.8334" x2="522.0312" y2="789.8334">
				<stop  offset="0" style="stop-color:#FFFFFF"/>
				<stop  offset="1.079329e-02" style="stop-color:#FCFDFE"/>
				<stop  offset="0.4778" style="stop-color:#84AADA"/>
				<stop  offset="0.6029" style="stop-color:#7DA4D4"/>
				<stop  offset="0.7862" style="stop-color:#6993C3"/>
				<stop  offset="1" style="stop-color:#4A79A7"/>
			</linearGradient>
			<path fill="url(#SVGID_6_)" d="M496.2,746.6l-14.2-1.9c-8.3,0.2-36.8,16.8-37.8,16.9c0,0-38.9-33.3-47.3-33.3
				c-8.4,0-70.6,0-76.7,0c-6.1,0-32.2,12.6-43.2,19.3l13.6,13.9h26.4c-1.7,21.9-3.7,81.9,2.8,85.1c7.8,3.8,108.7,4.8,117.1,4.6
				c8.4-0.2,83.7-31.2,83.7-31.2l1.6-28.4L496.2,746.6z"/>
			<linearGradient id="SVGID_7_" gradientUnits="userSpaceOnUse" x1="309.2035" y1="861.6727" x2="391.7715" y2="861.6727">
				<stop  offset="0" style="stop-color:#312A6C"/>
				<stop  offset="1" style="stop-color:#852D91"/>
			</linearGradient>
			<polygon fill="url(#SVGID_7_)" points="343.5,696.1 309.2,1022.5 349.5,1027.3 391.8,700.9 			"/>
			<linearGradient id="SVGID_8_" gradientUnits="userSpaceOnUse" x1="330.6439" y1="764.4954" x2="453.2957" y2="764.4954">
				<stop  offset="0" style="stop-color:#FFFFFF"/>
				<stop  offset="1.079329e-02" style="stop-color:#FCFDFE"/>
				<stop  offset="0.4778" style="stop-color:#84AADA"/>
				<stop  offset="0.6029" style="stop-color:#7DA4D4"/>
				<stop  offset="0.7862" style="stop-color:#6993C3"/>
				<stop  offset="1" style="stop-color:#4A79A7"/>
			</linearGradient>
			<path fill="url(#SVGID_8_)" d="M343.7,736.3c-2.4,0-13,10.9-13,13.5c0,2.5,0.2,13.7,0.8,15.3c0.6,1.7,15.8,13.2,17,13.5
				c1.3,0.2,47.1,1.8,48.7,2.7c1.6,0.9,28.4,11,33.4,11.4s22.7-9.1,22.7-11c0-1.9-14.2-33.7-17.7-38.5s-30.6-6.8-39.4-6.8
				S349.5,736.3,343.7,736.3z"/>
			<linearGradient id="SVGID_9_" gradientUnits="userSpaceOnUse" x1="266.3227" y1="807.3132" x2="346.7242" y2="807.3132">
				<stop  offset="0" style="stop-color:#FFFFFF"/>
				<stop  offset="1.079329e-02" style="stop-color:#FCFDFE"/>
				<stop  offset="0.4778" style="stop-color:#84AADA"/>
				<stop  offset="0.6029" style="stop-color:#7DA4D4"/>
				<stop  offset="0.7862" style="stop-color:#6993C3"/>
				<stop  offset="1" style="stop-color:#4A79A7"/>
			</linearGradient>
			<path fill="url(#SVGID_9_)" d="M276.9,747.7c-4,0-8.5,9.6-8.5,15.9c0,6.3,5,17.1,5,17.1s-7.1,9.9-7.1,13.2c0,3.4,0,14.9,0,17.7
				s9.5,10.5,9.5,10.5s-2.3,6.7-2.3,10.3s8,16.4,8,16.4s-2.2,12.9-1.9,14.8c0.3,1.9,44.6,4.3,46,3c1.4-1.3,6.3-8.4,5.7-10.7
				c-0.6-2.4-3.9-10.6-3.9-10.6s10.2-7.4,9.6-10.2s-3.5-15-3.5-15s9.8-9.5,9.9-11.8s-4.6-15.6-4.6-15.6l7.9-8.3
				c0,0-2.2-14.4-4.1-18.8c-1.8-4.2-30.9-17.9-35.9-17.9C300.6,747.7,291.4,747.7,276.9,747.7z"/>
			<linearGradient id="SVGID_10_" gradientUnits="userSpaceOnUse" x1="245.3026" y1="933.1359" x2="412.8654" y2="933.1359">
				<stop  offset="0" style="stop-color:#FFFFFF"/>
				<stop  offset="1.079329e-02" style="stop-color:#FCFDFE"/>
				<stop  offset="0.4778" style="stop-color:#84AADA"/>
				<stop  offset="0.6029" style="stop-color:#7DA4D4"/>
				<stop  offset="0.7862" style="stop-color:#6993C3"/>
				<stop  offset="1" style="stop-color:#4A79A7"/>
			</linearGradient>
			<path fill="url(#SVGID_10_)" d="M391.2,968.6c1.4-9.6,24.3-38.8,21.4-43.5c-2.8-4.7-7.3-37.5-10.6-40.4s-18.1-9.1-19.4-9.5
				s-14,4.4-14,4.4s-44.6-17.9-48.8-19.1c-4.2-1.3-49.6-1.7-53.4-1.7c-3.8,0-8.2,19.1-9,21.2c-0.8,2.1,4.6,9.9,4.6,9.9
				s-6.7,3.6-7.8,4.8c-1.1,1.3-3.8,16.8-3.8,18.9s5.9,7.8,5.9,7.8s-5.4,4.5-5.9,5.5c-0.5,0.9-2,15.4-2,17c0,1.6,3.8,7.7,3.8,7.7
				s-4.5,4-4.9,5.1s-2.1,16.2-2.1,17.7c0,1.5,7.6,8.6,8.2,9.7c0.6,1.1,39.5,11.8,47.3,14.3c7.8,2.5,37.1,1.7,37.1,1.7
				s12,6.9,13.2,7.3s47.8-2.7,47.5-8.4S389.3,981.6,391.2,968.6z"/>
			<linearGradient id="SVGID_11_" gradientUnits="userSpaceOnUse" x1="340.7335" y1="692.5275" x2="397.6566" y2="692.5275">
				<stop  offset="1.075269e-02" style="stop-color:#10395F"/>
				<stop  offset="0.9892" style="stop-color:#001135"/>
			</linearGradient>
			<polygon fill="url(#SVGID_11_)" points="343.5,696.1 340.7,684.2 397.7,689.8 391.8,700.9 			"/>
			<linearGradient id="SVGID_12_" gradientUnits="userSpaceOnUse" x1="340.7335" y1="368.6457" x2="465.8026" y2="368.6457">
				<stop  offset="0" style="stop-color:#A63A46"/>
				<stop  offset="1" style="stop-color:#F8A584"/>
			</linearGradient>
			<polygon fill="url(#SVGID_12_)" points="340.7,684.2 387.4,62.4 427.1,47.5 465.8,196.7 397.7,689.8 			"/>
			<polygon opacity="0.2" points="387.4,62.4 406.1,55.4 416.1,202.7 360.6,686.1 340.7,684.2 			"/>
			<linearGradient id="SVGID_13_" gradientUnits="userSpaceOnUse" x1="430.5941" y1="560.9699" x2="621.8945" y2="560.9699">
				<stop  offset="4.502470e-04" style="stop-color:#F1594B"/>
				<stop  offset="1" style="stop-color:#FDE0D2"/>
			</linearGradient>
			<path fill="url(#SVGID_13_)" d="M430.6,553c0,0,41.3,53.9,57.1,69.1s47.3,50.1,76.3,39.7s50.8-57.1,53.9-83.6s0-58.6,0-58.6
				s2.6-9.7,3.9-18.5c1.3-8.8-7.6-42.9-7.6-42.9l-179.9,59.7L430.6,553z"/>
			<path opacity="0.1" d="M596.6,580.2c0.8-6.7-2.7-74.2-4.9-114.5l-157.4,52.2l-3.7,35.1c0,0,41.3,53.9,57.1,69.1
				c15.8,15.1,47.3,50.1,76.3,39.7c3.8-1.4,7.4-3.3,10.9-5.8C587.5,629.5,595.7,587.8,596.6,580.2z"/>
			<linearGradient id="SVGID_14_" gradientUnits="userSpaceOnUse" x1="377.7276" y1="449.6679" x2="616.9232" y2="449.6679">
				<stop  offset="0" style="stop-color:#312A6C"/>
				<stop  offset="1" style="stop-color:#852D91"/>
			</linearGradient>
			<path fill="url(#SVGID_14_)" d="M391.2,520.9c0,0-3.6,36.6,0,43.7c3.6,7.1,58.2,2.1,98.6-8.4s104.3-45.8,114.3-62.6
				c10.1-16.8,15.1-41.6,11.8-57.2c-3.4-15.6-43.7-98.4-83.7-102.6c-39.9-4.2-73.1-3.4-88.7,6.7c-15.6,10.1-60.1,41.2-64.3,62.2
				S380,489.3,391.2,520.9z"/>
			<path opacity="0.2" d="M391.2,520.9c0,0-3.6,36.6,0,43.7c3.6,7.1,58.2,2.1,98.6-8.4c22.7-5.9,52.8-19.6,76.6-33.5
				c-18.8,1-53.6,5.8-51.6,4.5c2.7-1.7,54-52.1,54-52.1s-30.3-63.5-36.6-68.9c-6.3-5.5-91.6-32.8-101.6-35.3
				c-10-2.5-51.4,32-51.4,32C375,423.8,380,489.3,391.2,520.9z"/>
			<linearGradient id="SVGID_15_" gradientUnits="userSpaceOnUse" x1="552.3836" y1="778.751" x2="956.0078" y2="778.751">
				<stop  offset="0" style="stop-color:#2A00E6"/>
				<stop  offset="1" style="stop-color:#FF00AA"/>
			</linearGradient>
			<path fill="url(#SVGID_15_)" d="M641.5,665.5c-8.8,1.6-38.7,31.1-42.9,37c-4.2,5.9-17.2,42.5-16.4,52.6c0.8,10.1-0.1,29,0,31.5
				c0,2.5-29,56.8-29.8,59.7c-0.8,2.9,23.1,43.7,44.6,45.8c21.4,2.1,109.3,0.4,117.7,0c8.4-0.4,24.4-8.8,24-10.1
				c-0.4-1.3,16.8-54.7,19.8-59.7c2.9-5,60.5-44.1,61.4-50c0.8-5.9-58.4-80.7-78.6-91.6S665.1,661.3,641.5,665.5z"/>
			<path opacity="0.2" d="M819.8,772.3c0.1-0.9-1.3-3.7-3.8-7.6l-24.3,5.9l-153.9,95.9h-29l-1.3-15.1l38.7-11.8l90.4-65.6l-108,59.3
				l-37.8-2.1l0.8-13.9l62.2-18.9l71-55.9l-95.4,53.4l-39.1,8.4l1.3-7.1l32.4-10.9l55.1-41.6l-46.7,28.6l-36.2,13l-13.7-9.8
				c-0.1,5.1-0.3,9.1-0.3,10.2c0,2.5-29,56.8-29.8,59.7s23.1,43.7,44.6,45.8s109.3,0.4,117.7,0s24.4-8.8,24-10.1
				c-0.4-1.3,16.8-54.7,19.8-59.7C761.3,817.3,818.9,778.2,819.8,772.3z"/>
			<g opacity="0.1">
				<path d="M327.7,880.4l-17,26l-47.9-18l-2-0.6c0.8,1.3,1.4,2.1,1.4,2.1s-0.9,0.5-2.1,1.2l1.6,0.4l47.2,17.7l-16.1,24.5
					l-35.6-13.8l-0.2-0.1l-2.2-0.2c1,1.1,1.8,1.9,1.8,1.9s-0.8,0.6-1.8,1.5l1.4,0.1l34.7,13.5l-14.5,22.1l-23.6-8.7l-1.3,0
					c0.6,1,1,1.7,1,1.7s-0.8,0.7-1.7,1.6l1.4,0l23.5,8.7l4.7,30.3c1.2,0.3,2.4,0.7,3.6,1l-5-32.2l51.8-78.9L327.7,880.4z"/>
				<path d="M340,791.4l-0.4-0.2l-23.9-7.8h-27.1v3.4h26.5l22.9,7.4l1.5,0.8c-0.5-1.4-0.8-2.4-0.8-2.4L340,791.4z"/>
				<path d="M334.1,818.5l-17.7-2.3l-0.2,0l-22.5,1.3l0.2,3.4l22.2-1.3l17,2.2l0.9,0.3c-0.3-1.2-0.5-2-0.5-2s0.5-0.5,1.3-1.3
					L334.1,818.5z"/>
				<path d="M328,843.8l-0.3-0.1l-27.6-1.1l-0.1,3.4l27,1.1l1.2,0.5c-0.5-1.3-0.9-2.2-0.9-2.2s0.6-0.5,1.6-1.2L328,843.8z"/>
			</g>
			<linearGradient id="SVGID_16_" gradientUnits="userSpaceOnUse" x1="264.4742" y1="885.199" x2="388.9745" y2="885.199">
				<stop  offset="0" style="stop-color:#FFFFFF"/>
				<stop  offset="1.079329e-02" style="stop-color:#FCFDFE"/>
				<stop  offset="0.4778" style="stop-color:#84AADA"/>
				<stop  offset="0.6029" style="stop-color:#7DA4D4"/>
				<stop  offset="0.7862" style="stop-color:#6993C3"/>
				<stop  offset="1" style="stop-color:#4A79A7"/>
			</linearGradient>
			<path fill="url(#SVGID_16_)" d="M368.7,879.7c0,0-44.6-17.9-48.8-19.1c-4.2-1.3-49.6-1.7-53.4-1.7c-0.7,0-1.4,0.6-2.1,1.6
				l124.5,51L368.7,879.7z"/>
			<g opacity="0.3">
				<polygon points="1041.3,934.1 989.6,964 942.1,982.5 884.1,1030 810.5,1051.4 783.2,1051.4 723.9,1029.6 733.5,1054.8 
					780.3,1070.3 808.8,1059 858.5,1060.2 907.2,1019.5 943.4,996.3 1049.3,936.6 1068.7,916.5 				"/>
				<polygon points="844.2,1013.2 918.6,985.4 834.7,1009.8 795,1013.2 747.5,1009.8 792,1019.9 				"/>
				<polygon points="986.2,901.1 869.5,889.5 790.4,866.4 864.4,896.7 				"/>
			</g>
			<polygon opacity="0.2" points="560.2,1383.5 652.9,1205.1 581,1372.2 593.6,1399.9 664.2,1331.2 632.4,1373.8 751.3,1297.8 
				608.1,1407.8 608.7,1417 693.6,1374.1 608.3,1435.2 612.5,1451.6 659.6,1423 615.9,1473.5 563.3,1473.5 			"/>
			<polygon opacity="0.2" points="961.5,1176.3 823.6,1246.1 952.6,1196.9 868.1,1246.1 961.5,1223.4 			"/>
			<linearGradient id="SVGID_17_" gradientUnits="userSpaceOnUse" x1="447.394" y1="1713.3673" x2="710.3521" y2="1450.4092">
				<stop  offset="0" style="stop-color:#312A6C"/>
				<stop  offset="1" style="stop-color:#852D91"/>
			</linearGradient>
			<path fill="url(#SVGID_17_)" d="M479.2,1253.3c0,0,17.3-11,20.8-10.1c3.5,0.9,103.4,94.9,115.1,122.7s28.4,131.2,30.9,137.5
				s44.8,96.5,45.4,111.6c0.6,15.1-22.1,169.6-22.1,179.7c0,10.1,19.6,94.6,22.1,100.9c2.5,6.3-26.3,14.3-33,12.6
				c-6.7-1.7-27.7-10.1-28.6-12.6c-0.8-2.5-13.9-46.2-26.9-58.9c-13-12.6-24.8-15.1-27.7-24.8s-81.6-280-85.8-289.2
				c-4.2-9.2-36.6-38.3-36.6-47.9s-3.8-72.7-4.2-82.4c-0.4-9.7,20-47.1,22.9-56.3C474.4,1326.8,476.2,1255.1,479.2,1253.3z"/>
			<linearGradient id="SVGID_18_" gradientUnits="userSpaceOnUse" x1="762.2498" y1="1789.9829" x2="1244.7198" y2="1307.5128">
				<stop  offset="0" style="stop-color:#312A6C"/>
				<stop  offset="1" style="stop-color:#852D91"/>
			</linearGradient>
			<path fill="url(#SVGID_18_)" d="M1057.4,1130.7c-5.4,0.2-71.3,1.3-93.3,19.5c-22.1,18.3-70,146-76.3,161.7
				c-6.3,15.8,11.9,115.7,13.1,145.1c1.3,29.4-24.8,429.2-24.8,438.1c0,8.8,10.5,24.4,18.5,18.9s20.2-24,23.1-31.5
				c2.9-7.6,17.2-58.9,46.7-60.5c29.4-1.7,83.7,74.4,88.3,76.9c4.6,2.5,29.4,9.7,33.6,5c4.2-4.6,0.3-179.3,0-198.2
				c-0.2-14.5,38.9-146.4,42-182.9c3.2-36.5,6.3-154.4,6.3-178.4c0-24,17-97.7,15.1-109.1C1147.9,1224,1082.2,1129.8,1057.4,1130.7z
				"/>
		</g>
	</g>
</g>
</svg>
