<?xml version="1.0" encoding="utf-8"?>
<!-- Generator: Adobe Illustrator 19.0.0, SVG Export Plug-In . SVG Version: 6.00 Build 0)  -->
<svg version="1.1" id="Layer_1" xmlns="http://www.w3.org/2000/svg" xmlns:xlink="http://www.w3.org/1999/xlink" x="0px" y="0px"
	 viewBox="0 0 1400 980" style="enable-background:new 0 0 1400 980;" xml:space="preserve">
<style type="text/css">
	.st0{fill:#E75338;}
	.st1{fill:#222B3A;}
	.st2{fill:#FFFFFF;}
</style>
<rect y="490" class="st0" width="466.7" height="490"/>
<rect x="466.7" y="490" class="st1" width="466.7" height="490"/>
<rect x="933.3" y="490" class="st2" width="466.7" height="490"/>
<rect class="st2" width="466.7" height="490"/>
<rect x="466.7" class="st0" width="466.7" height="490"/>
<rect x="933.3" class="st1" width="466.7" height="490"/>
<path class="st2" d="M1270.4,411c-6.4-0.9-5-10.4-5.6-13.3c-0.6-2.9-7-65.7-7-65.7s2.2-1.6,2.4-2.2c0.1-0.7-0.7-4.9-1.8-5.7
	c0,0,0.7-4.2-2.2-6.2c0,0,0.3-5.1-2-6.1c0,0-0.4-4.2-2.7-6.9c-2.3-2.7-1.9-20.3-10.8-19.8c-9,0.5-11.3,4.3-11.3,4.3
	s-8.2-12.2-11.3-16c-3-3.8-11.4-12.6-11.4-12.6s1.3-5.2,0-6.6c-1.3-1.4-2.9-1.6-3.3-2.3c-0.4-0.7,2-4,1.5-5.5c-0.5-1.5-3.7-4.4-3-5
	c0.7-0.6,5.7-1,5.8-2.5c0.1-1.5-0.6-10.1,0-10.9c0.6-0.8,4.7-11.9,4.2-15.2l5.1-3.9c0,0,3.9,8.4,6,9.2c2.1,0.8,10.4-3.4,10.4-3.4
	s10.4,5.9,12.5,6.6c2.1,0.7,7.6,0.9,8.3,0.4c0.7-0.4,6.7-7.4,7.4-11.4c0.7-4,0.9-16,2-16.8c0,0,3.4,0.2,5.3-1.5
	c1.9-1.7,5.8-7.2,5.7-11.9c-0.1-4.7-0.2-5.9-5.9-11.7c-5.7-5.7-8.1-7.6-10.3-8.5c0,0-2.5-4.6-4.7-7.6c-2.2-3-7.7-8.5-10.1-9
	c-2.4-0.4-6.1-0.3-6.1-0.3s-22.9-27.4-30-35.4c-7.2-8.1-29.8-37.2-29.8-37.2s-5.9-1.4-10.1,0c-4.2,1.4-8.2,2.7-4.8,9
	c3.4,6.3,19.1,28.8,23.6,33.9c4.5,5,37.5,39.4,37.5,39.4l2.8,1.3c0,0-5.5,11.6-4,13.1s6,4.8,6,4.8l-7.1,7.6c0,0-9.1-6.2-11.4-7.1
	c-2.4-0.8-14.3-0.3-16.5-1.2c-2.2-0.8-3-2.2-3-2.2s3.1-5.4,3.3-7.5c0,0,3.5-5.3-1.9-4.6c0,0,2.7-21.7-19-24.2c-21.7-2.5-24,18-24,18
	l-2.1-0.5c0,0-1.7,4.3-0.8,4.9c0.9,0.7,2.6,0.3,2.6,0.3s-2,3-3.4,3.7c-1.3,0.8-4.1,2.9,2,4.4l-0.2,5.9c0,0-4.8,3.4,1.9,6.5l0.3,3.5
	c0,0-12.8,15-13.2,24.7c0,0-3.3,5.4-3.3,7.1c0,1.7,6.4,10.8,6.4,10.8s-0.1,2.6,0.8,4.2c0.9,1.6-2.1,4.3-2.8,6.3
	c-0.7,2,0.4,3.7-0.3,4.1c-0.8,0.4-6.6,3-7.1,6.6c-0.5,3.5,0,12.6,0,12.6s-5.2,7.6-5,8.6c0.2,1,1.5,4,1.5,4l-0.1,10.4
	c0,0-1.7,2.5-1.5,3.6c0.2,1.1,1.1,1.8,0.7,2.2c-0.4,0.4-1.8,2.7-2,4c-0.2,1.3-0.1,3.9-1.2,6.6c-1.1,2.7-6.3,19.8-6.7,22.8
	c-0.4,2.9,0,7.8,0,7.8s-5.9,3.4-7.6,4.9c-1.7,1.6-9.8,14.5-9.8,14.5l0.5,1.2c0,0-2.1-0.3-3.1,0.6c-1,0.9-7.3,5.8-6.5,10.8
	c0,0-25.3,32.3-28.4,35.2c-3,2.9-2.4,8.4,0,9.2v1.7c0,0-2.1,3.9-2.6,6.8c-0.4,2.9-1.1,5.5,0,6.6c1.1,1.1,3,3,10.4,2.9
	c7.4-0.1,10.1-1.1,10.2-2.4c0.1-1.2,0.1-3.8,0.1-3.8s4.4,1.5,8.4-3.9c4-5.4,33.6-41.9,36.8-43.4c0,0,6.2,0,7.6-1.7
	c1.3-1.7,17-24.7,19.2-26.2c2.2-1.5,3.4-5.7-1.5-8.1c0,0,15-28.4,21.9-27.9c6.9,0.5,38,26.6,41.2,27.6c3.2,1,7.7-0.3,8.2,0.8
	c0,0,1.2,6.1,2.4,6.7c0,0-1.2,6.9,0.7,9.1c0,0-0.5,10.8,0.2,11.8c0.7,1,3,3.7,3,3.7s2.5,16.8,5.7,18.5c0,0-3.9,2.3-3.1,3.8
	c0.8,1.5,3.7,5.7,3.1,7.3c-0.6,1.6-2.8,7.7-1.9,9.4c0.9,1.7,2.5,4.8,2.5,4.8s-3,9.3-1.1,11c1.9,1.7,8.5,1.9,11.4,2.5
	c2.9,0.6,12.4,1.1,16,1.2c3.6,0.1,13.1,0.4,15.6-1.7C1277.2,417,1276.8,411.9,1270.4,411z M1240.7,179.1c1-1.3,2.9-8.5,3.7-8.5
	l1.7,1.6c0,0-0.9,6.5,0,8.7c0.9,2.2,1.7,4.3,1.9,5.5c0.2,1.2,0.6,11.3,0,12c-0.6,0.7-1.5,0.8-1.5,0.8l-2.5-1.3c0,0-8.5-4.4-9.6-5.3
	c-1.1-0.9-3.4-3.3-3.4-3.3S1239.7,180.5,1240.7,179.1z"/>
<path class="st2" d="M309.5,581.3c-1.9-0.9-48.3,10.3-54.2,12.9c-5.9,2.6-14.8,8.3-14.8,10c0,1.7,0.7,2.4,0.7,2.4l-13.6,4.4
	c0,0,0.2-3.1,0.3-3.8c0.2-0.7,1.6-0.3,1.9-1c0.3-0.7-6.1-0.7-6.1-0.7l0.2-8.9l3.8-0.9c0.2-1-4.4-5.1-4.4-5.1s-3.3-16.2-18.1-17.6
	c-14.8-1.4-18.6,16.2-18.6,16.2c-3.9,1.4-0.8,6.4-0.8,6.4s0.4,12.7,1,16.9c0.7,4.2,5.9,8.5,5.9,8.5v1.6c0,0-12.8-2.6-20.9,2
	c-8.1,4.6-4.6,29.8-4.1,32.5c0.5,2.7,1.2,15.2,0.9,16.9c-0.3,1.7,0.8,1.7,2.7,6.4c2,4.7,3.1,12.3,3.7,12.9c0.5,0.7,0.4,3.3-0.5,4.7
	c-0.9,1.4,1.7,2.7,1.4,4.6c-0.3,1.8,3,3.9,1.7,5.5c-1.3,1.6,1.3,6.3,3,8c1.7,1.7,1.4,2,1.3,5.1c-0.1,3.1-1.3,9-1.3,9s-1.4,0.3-7.2,0
	c-5.8-0.3-13.3-1.8-17.3,1.6c-3.9,3.4,4.8,21.9,4.8,21.9c-0.9,0.7,0.4,4.1,0.4,4.1c-1.6,2.2,2.1,6.1,2.1,6.1l11.2,34.1
	c-2.1,0.5-6.3-0.9-8.4,1.3c-2.1,2.2,6.9,19.3,6.9,19.3c-1.3,2,1,4.2,1,4.2c-0.5,3,2.3,5.2,2.3,5.2s0.1,1.4,0,2.7
	c-0.1,1.3,2.4,3,2.4,3c-0.7,2.6,8.8,28,8.8,28c-3.8,2.4-6.9,8.4-5.9,10.5c1,2.1,9.9,1.6,9.9,1.6l1,1.7c0,0,13.3,34.6,14.4,37.1
	c1,2.5-5.6,10.6-12.4,13.1c-6.8,2.5-4.7,8.6-4.7,8.6s15,0,20.2,0c5.2,0,28.4-13.6,28.4-13.6s-0.3-5.6-1.6-9.9
	c-1.2-4.4-5.4-8.7-5.4-8.7s-0.3-5.1-0.5-6.3c-0.2-1.2-5.2-11-6.8-16.2c-1.6-5.2-4.7-16.2-4.7-16.2l7-4.5c0,0-0.5-5.9-0.9-7.7
	c-0.3-1.7-3.5-6.4-4.7-8.5c-1.2-2.1-2.5-10.3-2.5-10.3c2.4-7.6-8.1-45.5-9.4-51.5c-1.3-6,8.4-18,8.4-18s18-9.1,22.7-13.6
	c4.7-4.4,7.6-11.8,6.3-22.2c-1.3-10.5-9.3-16.9-9.3-16.9s-0.3-2.4-0.3-3.1c0-0.8,0.7-2,0.8-2.4c0.1-0.4,1.3-1,1-1.7
	c-0.3-0.7-0.7-2-0.5-2.9c0.1-0.9,1.4-0.4,0.9-1.8c-0.5-1.4-0.7-1.7-0.9-4.1c-0.3-2.4,0.9-2.4,0.8-3.1c-0.1-0.8-0.9-1.4-1.6-2.9
	c-0.7-1.4,0.9-1.8,0.8-2.5c-0.1-0.7,0.5-5.5,0.5-5.5s4.8,3.1,8.6,3.1c3.8,0,4.6-3.1,10.6-4.4c6-1.3,5.2-22,4.7-24.1
	c-0.5-2.1-5.9-19.6-5.9-19.6h1.2l-0.2-9.7l0.7-1.6c0,0,4.7,1.7,5.4,1.6c0.7-0.2,1.7-1.9,1.7-1.9s2.4-0.3,3.8-0.7
	c1.4-0.3,3.7-5.2,3.7-5.2s42.7-15.7,43.2-17.4C317.2,598.4,311.4,582.2,309.5,581.3z M242.9,625.6c0,0.4-0.4,3.5-0.4,3.5
	s-4.7-0.4-6.5-2.2l6.9-5l0.8,3.4C243.6,625.4,242.9,625.2,242.9,625.6z"/>
<path class="st2" d="M766.4,639.8c-1.5-3.1-14-18.7-14-18.7l0.7-8.6c4.3-1.2,5.1-9.1,4.8-10.3c-0.3-1.2-2.4-2.4-3.4-3.6
	c-1-1.2-1.4-0.7-3.1-3.3c-1.7-2.6-5-2.9-5-2.9s-1.4-2.2-2.7-4.1c-1.4-1.9-6-3.6-6-3.6s-0.9-3.9-0.9-4.5c0-0.5-2.1-2.7-2.4-3.6
	c-0.3-0.9-2.6-1.5-3.1-2.2c-0.5-0.7-2.6-2.4-4.8-3.6c-2.2-1.2-10.1-0.3-10.1-0.3s-38.5-38.2-41.6-41.5c-3.1-3.3-9.1-10.3-13.2-9.4
	c-4.1,0.9-5.5,8.6-2.2,15.6c3.3,7,37,38.2,39.7,39.4c2.7,1.2,7.7,7.5,7.7,7.5s0,2.1,0.9,4.1c0.9,2.1,3.5,5,3.7,5.4
	c0.3,0.4,0,3.7-0.1,6.2c-0.1,2.4,0.8,3.2,0.8,3.2s-1.8,5.5-3.9,9c-2.1,3.5-11.2,15.3-13,19.4c-1.8,4.1-5.9,6.4-5.9,6.4l-0.3-0.6
	c0,0,0.6-10.9,0-12.6c-0.6-1.7-3.2-6.3-3.5-6.9s0.3-1.9,0-2.4c-0.3-0.5-1.9-2.2-1.9-2.2s-10.3-14.1-23.8-10.9
	c-13.5,3.3-12.8,20.7-12.5,21.8v1.4c0,0-0.3,1.2-0.7,2.4c-0.3,1.2,0.2,7.9,0.7,8.9c0.5,1,4.5,7.7,6.2,9.2c1.7,1.5,2.7-0.8,5.9,1.5
	c3.2,2.3,0.4,5.1-1.3,4.6c-1.7-0.5-8,1.7-10.1,2.8c-2.2,1.2-3.3,10.5-4.6,12.8c-1.3,2.3,3.3,16.2,4.9,17.7c1.5,1.5,4.1,4.1,5.1,8.2
	c1,4.1,6.4,12.8,8.2,14.9c1.8,2.1,8,10,10.8,12.8c2.8,2.8,7.5,20.4,7.5,20.4l-0.3,13.2c0,0-2.1,5.1-2.6,5.7
	c-0.5,0.5-2.1,4.5-1.9,7.4c0.2,2.9,2.1,16.4,3.6,23c1.5,6.5,2,20.5,2.1,24.8c0.1,4.2-0.4,9.3-0.4,9.3c-1.9,0.8,0.1,5,0.1,5
	c-1.5,1-0.9,5.9-0.9,5.9c-0.9,0.3-0.1,3.5-0.1,3.5c-1.4,0.9-1.4,7.6-1.4,7.6c-1,12-24.8,66.6-24.8,66.6s-0.7,0.9-1.4,1.5
	c-0.7,0.7-4.3,5.5-6.7,7c-2.4,1.5-11.3-0.2-13,1.5c-1.7,1.7-0.2,4.3,3.8,7.7c3.9,3.4,23.1,4.6,27.4,3.9c4.3-0.7,17.8-2.6,18.7-4.3
	c0.9-1.7,0-7.7,0-7.7s1.3-3.9,2.3-5.1c1-1.3,0.5-4.4,0.3-6.2c-0.3-1.8,4.3-14.2,6-17.1c1.7-2.9,13.4-14.2,13.4-14.2l29.5,34.9
	c0,0-0.2,2.1-0.7,2.6c-0.5,0.5-0.3,3.4-0.3,5c0,1.5,2.4,0-2.7,3.6c-5.1,3.6-6.2,9.4,1.7,9.4c7.9,0,15.8-0.9,16.4-2.6
	c0.7-1.7,3.4-7.2,6-11.5c2.6-4.3,10.4-12.9,8.7-15.5c-1.8-2.6-5.9-2.6-5.9-2.6s0-1.3-0.5-2.6c-0.5-1.3-9.8-12.6-12.8-16.2
	c-3.1-3.6-11.3-22.3-13-24.7c-1.7-2.4-11.9-11.8-11.9-11.8s0.3-6.9,1.3-10c1-3.1,2.6-2.6,3.9-3.9c1.3-1.3,2.1-1.8,2.6-3.1
	c0.5-1.3,2.3-8.5,4.4-13.4c2.1-4.9,12.3-15.7,12.8-21.6c0.5-5.9,11.3-36.7,11-38c-0.3-1.3-11.9-21.2-11.9-21.2s0.3-9.3,0.2-10.6
	c-0.2-1.4-2.7-7.2-4.2-14.2c-1.5-6.9-9.8-34.9-9.8-34.9s1.2-1.5,1.2-2.6c0-1,3.8-0.2,5-1.8c1.2-1.6,1.9-0.8,2.6-0.4
	c0.7,0.4,1.5,0.6,2.4-0.1c0.9-0.7,1.7,0.3,3.9,0c2.2-0.3,6.7-0.2,9.2-0.9c2.6-0.7,11.6-6,14.2-7.9
	C769.7,660.7,767.9,642.9,766.4,639.8z M741.7,643.9c-1-0.2-1.7,1.9-2.6,1.5c-0.9-0.3-1.7,0.3-3.9,0c-2.2-0.3-11-1.9-13-3.3
	c-2.1-1.4-10.8-2.9-10.8-2.9c2.4-1.4,5.8-12.8,6.9-17.5c1-4.6,3.7-16.2,3.7-16.2l1-1c2.3-0.5,4-7.2,4-7.2l3.7,1.3l0.3,3.7
	c0,0,0,4.1,0.1,4.6c0.1,0.5,1.2,5.8,2.4,7.3c1.2,1.5,3.5,2.9,3.5,2.9s-0.1,3.3,0.2,4.3c0.3,0.9,0.8,1.3,2.2,2.2
	c1.5,0.9,2.7,2.1,2.7,2.1s4.9,8.6,5.7,10.4c0.9,1.8,0.9,7.5,0.9,7.5S742.8,644.1,741.7,643.9z"/>
<path class="st2" d="M786.6,339.3c-1.8-0.1-6.4,0.7-6.4,0.7s-2.8-1.4-4.7-2.2c-1.9-0.8-7.8-5.6-7.8-5.6c-1.2-3.6-5.3-4.3-5.3-4.3
	c-1.5-11-5-19.6-5-19.6s6.1-5.9,29.1-25.6c23-19.6,10.6-42.1,8.3-45.6c-2.2-3.5-10.9-15.6-10.9-15.6c1.5-4.4-4.4-17-5.6-20
	c-1.1-3-10.6-20.6-12.6-23.3c-2-2.8-14.6-18-14.6-18c-12.1-18.2-24.6-27.8-35.3-28.8c-10.7-1-16.8,11.8-17.4,13.5
	c-0.6,1.7-4.7,5.4-4.7,5.4s-1.4-1.4-2.5-3.2c-1.1-1.8-6.8-14-6.8-14s2.5-1.5,2.9-3.6c0.4-2.1-4.4-5.4-4.4-5.4s-1.1-2.8-8.5-6.1
	c-7.4-3.3-21.9,0.6-28.9,11.1c-7,10.6,1.5,22.8,1.5,22.8c-1.8,3.6-2.7,7.2-2.7,7.2c1.6,1.6,8.9-4.1,8.9-4.1s0,0,0.5,0.7
	c0.5,0.7,4.1,2.6,4.1,2.6s0.9,1.3,1.6,1.9c0.3,0.3,1,1,1.8,1.8l-5,4.7c-0.1,0.1-0.2,0.4-0.1,0.5l2.8,4.2c0,0,0,0,0,0c0,0,0,0,0,0
	c0,0,0,0,0.1,0.1c0,0,0,0,0,0l6.2,4.3c-5,5-10.9,11.5-10.9,11.5s-1.2-0.9-2.9-1.6c-1.7-0.7-3.8,0.3-3.8,0.3s0.5-0.6-3.1,0
	c-3.6,0.6-9.6,7-9.9,7.7c-0.3,0.6-2.5,1.8-3.2,2.8c-0.7,1,0.8,6.1,0.8,6.1l0.3,3.3c0,0-2.2,1.9-2.8,2.8c-0.6,0.9,0.5,4.1,0.5,4.1
	l-1.9,2.1c0,0-2.4,2.1-3.1,2.9c-0.7,0.7-1.1,3.3-1.1,3.3s-0.9,0.7-1.8,1.6c-0.8,0.8-1.5,3.8-1.5,3.8s-2.5-0.4-3.3-0.3
	c-0.8,0.1-2.6,1.3-2.6,1.3l-30,61.1c0,0-14.8,29.1-15,30.4c-0.2,1.3,3,6.1,6.3,9.4c3.3,3.3,12.6,7.2,13.2,7.2c0.6,0,2.2-1.3,2.2-1.3
	s9.3-15.2,12.2-20.6c3-5.4,35.4-69.6,35.4-69.6c0.8-1.7-0.5-2.5-0.5-2.5c1.9,0.1,5.8-2.2,5.8-2.2s3.4,0.5,4.9,0.5
	c1.5,0,4.7-1.5,4.7-1.5s0,0,1.3,1.5c1.2,1.5,5.1,2.2,5.1,2.2s7.2,1.8,10.7,4.2c3.5,2.4,6.3,2.2,11.4,0.8c5.1-1.4,6.5-7.8,6.5-7.8
	l3.2-0.6c5.1-1.3,16.4-21.1,16.4-21.1s11,11.7,12.8,13.6c1.8,1.9,2.3,10.8,4.7,14.2c2.4,3.3,6.4,2.4,7.1,2.6
	c0.7,0.3,0.8,3.8,0.8,6.5s-6.9,28.8-6.9,28.8c-1.8-1.1-6.4-0.5-6.4-0.5c-8.2,0.4-2.5,26.2-2.4,28.3c0.1,2-0.5,4.2-0.1,9
	c0.4,4.8,2.7,9.4,2.7,9.4c-1,2.1,0.5,10.7,0.5,10.7s-1.7,0.3-2.5,0.1c-0.7-0.2-4.1-1-6-1.5c-1.9-0.5-8.2,1.9-7.6,6
	c0.6,4.2,16.1,9.3,16.1,9.3c1.6,2.2,5.7,3.9,5.7,3.9s2.5,23.3,2.9,28.9c0.4,5.6,3,14.9,3,14.9s-1.1,1.4-6.4,5.8
	c-5.3,4.4-5.2,6.8-5.2,6.8c-0.7,0.2-1.1,1.9-1.1,2.3c0,3.2,5.3,3.5,9.6,3.8c4.2,0.3,12.1-0.4,17.6-2c5.6-1.6,7.3-4.4,7.3-4.4
	s4.1,0.2,8-1.7c3.9-1.9,3-4.7,2.7-5.9c-0.3-1.2-0.8-6.2-0.9-7.7c-0.1-1.5-1.2-6.6-1.2-6.6c-1.1-4-0.8-23.9-0.8-23.9
	c1.9,2.2,10,3.9,10,3.9c-1.5,2.4-5.3,14.5,1.4,15.7c6.7,1.3,12.2-6.8,14.6-11.4c2.4-4.6,0.7-14.6,3.2-18.5c2.4-3.9,5-12.9,2.1-17.2
	C790.9,336.8,786.6,339.3,786.6,339.3z M657,167.3l4.8-4.5c1.1,1.1,2.3,2.3,2.8,2.9c0.1,0.1,0.1,0.1,0.2,0.2l-5.4,4.9L657,167.3z
	 M659.9,171.4l5.4-4.9c1.1,0.9,2.8,2.2,4.1,3.1l-5.1,4.9L659.9,171.4z M665.1,174.9l5.1-4.9c0.6,0.5,1.1,0.8,1.1,0.8
	c-1,0.6-3.1,2.4-5.4,4.7L665.1,174.9z M679,200c-1,1.5-9.6,18.9-10.3,21c-0.8,2.1-0.9,3.8-0.9,3.8s-1.3,1.4-2.2,1.7
	c-0.9,0.3-3.8,0-3.8,0s-1.9-0.4-2.7-0.6c-0.7-0.3-2.2-0.3-2.2-0.3s-2.3-2.5-4-3.8c-1.7-1.3-3.5-2.9-3.5-2.9s-1.3-3.4-1.1-3.7
	c0,0,1-0.5,2-1.7c1-1.2,1-2.3,1.4-3.1c0.3-0.8,6.4-6,8.6-6.3c2.2-0.2,7.2-2.9,8.9-4.9c1.7-2,5.7-4.5,6.3-4.9
	c0.6-0.4,1.6-0.7,1.8-0.8c0.2-0.1,1.7-1.1,1.7-1.1l1.4-1C680.3,191.4,679.9,198.5,679,200z"/>
<path class="st1" d="M429.7,366.2c-1.4-1.3-1.9,0.3-8.5-1c-6.6-1.3-14.1-0.6-15-0.8c-0.9-0.1-3.9-1-3.9-1v-1.1c0,0-6-3.2-7.2-4
	c-1.2-0.8-6.7-3.3-10.6-6.8c-4-3.4-11.3-7.7-11.3-7.7s1.3-3.4,1.4-3.9c0.1-0.5-1.6-1.4-4.8-2.8c-3.1-1.5-5.2-2.8-5.2-2.8l-1.9,2.4
	c0,0-10.4-4.9-11.6-5.5c-1.2-0.5-5-0.8-5-0.8l-6.1-3.8c0,0-2.3-5.8-3.9-8.2c-1.6-2.4-7.5-5.5-7.5-5.5l-2.6-4.3
	c-2.3-11.1-13.2-26.3-14.1-27.5c-0.9-1.2-4-9.1-4.5-9.9c-0.5-0.7,0.4-1.7,0.8-2.7c0.4-1,0-2.5,0-2.5s0.2,0.6-0.5-5.9
	c-0.7-6.5-8.7-15.6-11.3-18.3c-2.6-2.7-6.7-7.1-6.7-7.1c0.1-3-1.6-6-2.6-7c-1-1-8.5-5.4-9.6-6.2c-1.1-0.9-3.3-3.2-4.3-4.1
	c-1-0.9-2.7-3.7-7-6.2c-4.3-2.6-27.6-22-33.1-25.2c-5.5-3.2-11.2-5.6-11.2-5.6s-2.4-1.6-2.9-1.9c-0.5-0.3-5.2,0-5.2,0
	c-2-2-9.6-1.3-10.1-1.2c0,0,0-0.1-0.5-0.8c-0.7-0.8-5.4,0-6,0.1c0-0.1,0-0.2-0.1-0.3c-0.2-1-1-1.1-1-1.1l-0.2-4.1
	c2.5-3.4,0.4-10.2,0-11.2c-0.4-1-3-0.9-3-0.9s-0.3-4.7-6.7-12.2c-6.3-7.5-20.4-6.1-22.1-5.9c-1.7,0.2-4.4,1.5-4.4,1.5
	c-14,3.7-13.3,22.4-13.3,22.4s-1-0.3-1.5-0.2c-0.4,0.2-0.3,3.7-0.3,4.5c0,0.8,1.8,1.2,1.8,1.2s0,0-0.2,1c-0.2,1-5.6,2.4-5.2,3.3
	c0.4,1,6.4-0.8,6.4-0.8c-0.9,2.5,0.8,9.8,1.3,11.5c-0.1,0-0.1,0-0.2,0.1c-0.2,0.1-0.2,0.4,0,0.6l4.8,5.5c0,0.9,0.1,5,3.2,7.6
	c0.1,0.1,0.2,0.2,0.3,0.2c1.6,1.2,3.7,1.9,6.3,1.9c1.3,0,2.7-0.2,4.3-0.5c0.9,0.3,1.7,0.4,1.7,0.4l-1.2,3.3c0,0-1.5,3.9-2.7,8.5
	c-1.2,4.6,0.3,15.1,0.8,17.1c0.4,1.9-1.4,12.6-1.4,12.6s-0.5,1.3-1.3,3.4c-0.8,2.1,1.1,5.9,1.1,5.9c-1.7,1.2-6.7,8.5-7.5,11.6
	c-0.9,3.1-5.4,4-5.4,4s-3.3-4-4.2-4.6c-0.9-0.6-3.7-0.5-5,0.1c-1.4,0.6-4.3,6.6-4.3,6.6l-2.6-1.7l-0.3-0.8c0,0-52.4-40.1-59.3-44.6
	c-6.9-4.5-29.5-15.1-37.9-13.2c-8.4,1.9-1.8,8.1-1.8,8.1s15.3,9,23.5,13.2c8.2,4.2,66.3,42.5,66.3,42.5s3.9,2.2,4.6,2.3
	c0.7,0.1,1.1,1.2,1.1,1.2l-1.7,2.5c0,0-3.2,1.6-4.6,3.8c-1.5,2.1,1.2,4.4,2.5,4.7c1.3,0.3,2.8-0.2,2.8-0.2s-0.6,2.1,0.6,3.6
	c1.1,1.5,2.9,0.9,2.9,0.9s0,1.2,1.1,2.6c1.1,1.4,4,1.5,4,1.5s-0.8,0.9-1,2.1c-0.2,1.2,1.5,2.8,3.1,2.9c1.5,0.1,3.9-2.3,3.9-2.3
	l1.9-2.3c0,0,0,0,1.1,0.6c1.1,0.6,2.4,0.1,2.4,0.1c-2.2,1.7-0.1,4-0.1,4c2.6,2.4,5.4-0.4,5.8-0.7c-0.6,0.6-2.2,3.4,0,5
	c2.3,1.6,5.6-1.4,5.6-1.4c-0.8,2.5,2.5,4.6,4.1,4c1.6-0.6,3.5-3.4,3.5-3.4c4.8,2.4,7.3-7.1,7.3-7.1l7.8-8c2.7,0.5,2.4-2.7,2.4-2.7
	l0.2-0.8c0,0,1.6-1.9,6.4-3c4.8-1.1,3.8-2.3,3.8-2.3l5.6-2c2.3,1.9,4.1,0,4.1,0l9.8-3.9c2.9-0.5,3-2.3,3-2.3
	c5.3-1.9,11.6-6.8,11.6-6.8s4.2,2.6,5.3,2.7c1.1,0.2,5.2,0.5,5.2,0.5s-11.3,19.3-11,20.6c0.3,1.3-3.6,7.8-5.2,12.2
	c-1.7,4.4-11.1,21.4-11.1,21.4l-8.9-2.4c0,0-6.1-6.6-11.1-6.8c-4.9-0.2-4.8,7.1-4.3,8.8c0.5,1.7,5,6.3,7.2,11.2
	c2.1,4.8,4.6,9.7,4.6,9.7c-0.6,4.5,5,7.3,5,7.3c-0.1,3.1,4.4,4.9,4.4,4.9c0.6,4.4,7.1,4.6,7.1,4.6c0.1,1.3,4.6,4.2,4.6,4.2l38.1,34
	c-0.6,3.3,4.4,6.7,4.4,6.7s-4.9,2.6-6.7,2.6c-1.7,0-5.2-0.9-7-0.3c-1.8,0.5-4.8,6.7-3.2,8.8c1.6,2.1,9.7,3.7,19,4.4
	c9.3,0.6,18.9-3.9,19.9-4.4c1-0.6,2.7-0.5,3.6-0.4c1,0.1,4.9-0.1,14.1-5c9.2-4.9,0-17.2-2-20.9c-2-3.7-6.7-3.5-6.7-3.5
	s-0.4-0.4-0.5-0.9c-0.2-0.4-2.2-3-2.7-3.2c-0.5-0.3-1.2-0.1-1.7-0.4c-0.4-0.3-0.9-1.6-1.8-2c-0.9-0.4-2.5-0.7-2.5-0.7
	s-0.2-0.5-0.2-0.7c0-0.2-6.4-7.8-7.7-9.3c-1.4-1.5-11.8-13-11.8-13s0.3-1,0.5-1.3c0.2-0.2-1.2-3.1-1.5-3.6s-2.9-3.8-3.8-5.5
	c-0.9-1.7-2.6-1-2.6-1c-3.7-6.7-9.8-8.9-9.8-8.9s1.4,0,7.3-2.7c5.8-2.7,18.4-21.5,18.4-21.5s8.7,10.2,13.1,15.2c4.4,5.1,9.8,9,9.8,9
	s-12.1,1.9-12.4,4.8c-0.3,2.9,4.3,5.3,5.5,5.5c1.1,0.2,5,3.5,9.2,6.3c4.2,2.7,10.4,6.8,10.4,6.8c0.3,4.4,7,3.9,7,3.9
	c0.4,3.3,5.2,2.3,5.2,2.3c0.6,3.5,7.8,1.5,7.8,1.5c3.1,2.4,5.5,1.6,5.5,1.6l44,19.2c0,0,1.1,1.6,3.1,2.1c1.9,0.5,2.7,0.2,2.7,0.2
	s2.4,3.5,4.7,4.8c2.3,1.3,6.4-0.2,7.7,0.2c1.3,0.3,5.8,3.2,5.8,3.2l0.5,3.7c0,0,0.8,3.1,1.6,4.7c0.8,1.6-2.7,2.9-2.7,2.9
	c-3.9,1-5,6.1-3.5,7.6c1.4,1.4,1.9,1.9,6.8,2.1c4.8,0.2,6.3-1.1,13.2-6c6.9-4.8,5.6-15.5,5.6-20c0-4.5,3.4-1.6,5.2-12.1
	C434.1,370.7,431.2,367.5,429.7,366.2z M158.8,188.3c0.4,0.5,1.3,1.9,2.3,3.5c-3.1,0.4-5.4,0.7-6.2,0.8c-0.2-0.4-0.3-0.7-0.5-1.1
	l1.4-6.3l0.4-0.1C156.3,185,158,187.2,158.8,188.3z M157.4,198.9c-0.2-0.6-0.9-2.3-1.7-4.2l5.9,5.9
	C160,200.3,158.6,199.8,157.4,198.9z M150.9,185.8c0.3,0.7,0.7,1.6,1.2,2.4c0.2,0.3,0.5,0.8,0.8,1.5l-3.3-3.8L150.9,185.8z
	 M155.9,197.3c-0.8-1.1-1.2-2.4-1.4-3.4C155.1,195.1,155.5,196.3,155.9,197.3z M155,185.2l-1.1,4.9c-0.5-1.1-0.9-1.9-1.1-2.3
	c-0.4-0.7-0.8-1.5-1-2.1L155,185.2z M162.9,200.7l-7.4-7.4c1.1-0.1,3.4-0.4,6.1-0.8c1,1.7,1.9,3.7,2.3,5.2c0.4,1.3,1.3,2.2,2.3,2.7
	C165,200.6,163.9,200.7,162.9,200.7z M209.8,255.7c0,0-3.2-0.3-3,1.5c0,0-6.6,5.2-7.8,5.2c-1.3,0-2.9,1.2-2.9,1.9c0,0.8-0.4,0-0.4,0
	l-4.3,2.4c0,0-0.8-0.8-2.1,0c-1.4,0.8-8.5,3.8-8.5,3.8H179c0,0,1.8-5.5,3.4-7c1.6-1.5,2.5-3.9,2.6-4.7c0.1-0.9,0.5-5.7,0.5-5.7
	s0.8-0.1,1.4-1.1c0.6-1,4.3-8.3,4.5-8.9c0.2-0.6,0.4-2.7,1.1-2.9c0.6-0.2,1.8-2.3,1.8-2.3s9,10,17.9,15.3L209.8,255.7z"/>
<path class="st0" d="M1193.6,582.7c0,0,2.3,5.3,2.4,7.2c0.1,1.8,0.1,13.7-1.2,14.5c-1.3,0.8-2,1-2,1v1.6c0,0,3.5-0.6,3.9,0
	c0.5,0.6,1.5,0.9,1.5,0.9s7.5-6.2,11.8-6.3c4.3-0.1,15.2-0.8,18.1-1.7c2.9-0.9,15.8-2.5,21,2.9s-3.2,17.6-7.6,24
	c-4.3,6.4-17.7,25.8-18.7,43.1c-1,17.3-6.9,29.5-6.9,29.5l-0.7,6.2c0,0,5.3,21.6,2.9,36.8c0,0,12.8,10.2,15.2,16.8
	c2.4,6.6,0.7,12.8-0.9,19.6c-1.6,6.7-10.8,33.5-10.8,33.5s0.2,2.5-0.7,2.8c0,0-1.8,4.3-1.2,6c0.7,1.7,1.2,2,1.2,3.1
	c0,1.2-1.5,7.6-1.5,7.6h-1l0.2,6.2c0,0,2.5,0.2,3.1,2.6c0.6,2.4-1.7,4.3-1.7,4.3s0.6,9.5,1.7,12.3c1.1,2.8,5.1,9.2,6.3,11.6
	c1.2,2.4,0.5,7.3-10.6,5.4c-11.1-1.9-13.7-7.1-18.3-12.8c-4.7-5.7-5.1-5.9-3.5-10.4c1.6-4.5,4.6-9.7,4.6-9.7l3.3-11.5
	c0,0,1-5.9-1.2-6.6c-2.2-0.7-7.7,2.2-8.4,0.8c-0.7-1.4,2.3-10.5,5.9-12.7c3.6-2.2,2.5-1.8,3-4.6c0.5-2.8,1.3-11.9,1.3-12.7
	c0-0.8-0.3-4-0.3-4s-5.9,20.1-7.2,21.6c-1.2,1.6-20.6,34.8-21.5,37.2c-0.9,2.4-16.5,30-16.5,30s-1.2,6.3-3.6,6.5l-2.8,6.9
	c0,0,8.3,0.2,7.8,3.8c-0.5,3.6-8.8,5.9-8.8,5.9s-1.9,2.2-1.9,4c0,1.7-2.1,6.4-1.4,8.7c0.7,2.3,1,3.1,1.7,4
	c0.7,0.9,5.7,15.2-0.7,15.4c-6.4,0.2-15.6-13.2-17-17.7c-1.4-4.5-2.2-7.4-3.1-10c-0.9-2.6-4.2-11.8-5.5-13.5
	c-1.4-1.7-2.4-10.4-2.4-10.4s12.3-6.6,16.3-4.7h1.2l0.3-2.2c0,0-1.7,0.9-4.5-1.6c-2.8-2.4-0.5-2.9-3.3-4.7c-2.8-1.7-2.9-0.5,0.2-7.3
	c3.1-6.8,21.5-46.7,26.1-51.7c4.7-5,2.4-11.1,2.8-11.9c0.3-0.9,9.7-15.6,10.6-17.6c0.9-2.1,3.6-25.1,3.6-25.1s-12.1-10.6-17-18.7
	c-4.8-8.1-3.6-16.1-4.2-21.1c-0.5-5,4.7-13.8,4.7-13.8l-0.2-3.8c0,0-6.1-2.2-6.1-6.6c0-4.3,2.2-10,2.2-10s-5.2-4.2-6.1-7.8
	c-0.9-3.6-2.1-13-3.6-14.9c-1.6-1.9-8.8-13.3-11.6-16.4c-2.8-3.1-37.7-25.4-37.7-25.4s-7.1-4.5-8-6.9c-0.9-2.4-1.2-9.5-1.2-9.5
	l-0.9-5.4c0,0-2.8-5-2.2-5.7c0.5-0.7,1.9-2.1,1.9-2.1s3.1-16.1,3.5-19s1.2-15.2,1.9-17c0.7-1.7,11.1-13.2,11.1-13.2
	s11.1-4.2,11.8-3.5c0.7,0.7,0.7,0.7,0.7,0.7l0.4,1.2c0,0,1.1-1,2.8-1c1.6-0.1,7.7,0.4,8,6c0.3,5.5-2.8,7.9-6.2,8.2
	c-3.5,0.3-5.6-1-5.6-1s-2.2,1.7-2.7,2.1c-0.5,0.3-0.5,0.6-1.4,0.7c-0.9,0.1-1.7-0.3-1.7-0.3s0.2,1.5-1.2,1.5s-2.5-0.7-2.5-0.7
	s-0.2,2.3-1.4,2.5c-1.2,0.2-2.9,0-2.9,0.3c0,0.3-0.7,1.8-0.7,1.8l1.9,24.2c0,0,2.6-1.4,3.5,0c0.9,1.4,2.4,8.7,2.4,8.7l-1.4,0.9
	c0,0,8.7,12.6,10.8,12.6s4.2-0.2,5.1,0.7c0.9,0.9,1.4,1.8,2.8,2.1c1.4,0.2,1.8-1.2,3.7,0c1.8,1.2,7.6,4.2,8.8,4.8
	c1.2,0.7,4.6,1.4,7.6,1.6c3,0.2,7.4,0,8.1,0.7c0.7,0.7,6.7,3,6.7,3s4.2-4.8,5.8-4.6c0,0-4.8-4.2-5.8-10.8
	c-0.9-6.7-2.2-17.4,1.7-21.1c3.9-3.7,3.5-4.8,3.8-5.4c0.3-0.6,1.4-3.5,3.6-3.3c2.2,0.1,2.9,0.1,3.6,0.2c0.7,0.1,0-0.6,2.1-1.3
	c2.1-0.7,5.9-0.6,6.6,0c0.7,0.6,3.1,1,4.2,0.8c1-0.2,0.5-3,2.8-1.2c2.3,1.8,3,1.8,3.9,2.7c0.9,0.8,2.7,1.6,2.3,3
	c-0.3,1.4-0.5,1.5,0.3,2.5c0.8,1,1.2,1.8,1,2.7C1194.1,580.8,1193.6,582.7,1193.6,582.7z"/>
</svg>
